# xmcd
#
# Track frame offsets:
#	150
#	12578
#	21548
#	31043
#	41648
#	53161
#	64254
#	75257
#	87085
#	97330
#
# Disc length: 1446 seconds
#
# Revision: 1
# Processed by: cddbd v1.5.2PL0 Copyright (c) Steve Scherf et al.
# Submitted via: audiograbber 1.83.01
#
DISCID=7a05a40a
DTITLE=Jim Reeves - Have I Told You Lately That I Love You
DYEAR=1964
DGENRE=Country
TTITLE0=Have I Told You Lately That I Love You
TTITLE1=I'm Gonna Change Everything
TTITLE2=Waltzing On Top Of The World
TTITLE3=Oklahoma Hills
TTITLE4=Beyond The Shadow Of A Doubt
TTITLE5=Roly Poly
TTITLE6=Each Time You Leave
TTITLE7=A Letter To My Heart
TTITLE8=Your Old Love Letters
TTITLE9=Highway To Nowhere
EXTD=
EXTT0=
EXTT1=
EXTT2=
EXTT3=
EXTT4=
EXTT5=
EXTT6=
EXTT7=
EXTT8=
EXTT9=
PLAYORDER=
